# xmcd CD database file
#
# Track frame offsets:
#	150
#	20254
#	35545
#	55654
#	72849
#	99614
#	122813
#
# Disc length: 2031 seconds
#
# Revision: 0
# Processed by: cddbd v1.5.2PL0 Copyright (c) Steve Scherf et al.
# Submitted via: CDex 1.70beta2
#
DISCID=5607ed07
DTITLE=The John Betsch Society - Earth Blossom
DYEAR=1974
DGENRE=Jazz
TTITLE0=Ode To Ethiopia
TTITLE1=Earth Blossom
TTITLE2=Open Pastures
TTITLE3=Song For An Untitled Lady
TTITLE4=RA
TTITLE5=Darling Doria
TTITLE6=Get Up And Go
EXTD=YEAR: 1974
EXTT0=
EXTT1=
EXTT2=
EXTT3=
EXTT4=
EXTT5=
EXTT6=
PLAYORDER=
